<?xml version="1.0" encoding="UTF-8" standalone="no"?>
<svg
   width="24"
   height="24"
   viewBox="0 0 24 24"
   fill="none"
   stroke="currentColor"
   stroke-width="2"
   stroke-linecap="round"
   stroke-linejoin="round"
   class="feather feather-thermometer"
   version="1.1"
   id="svg1"
   sodipodi:docname="17_thermometer_cold.svg"
   inkscape:version="1.3.2 (091e20ef0f, 2023-11-25, custom)"
   xmlns:inkscape="http://www.inkscape.org/namespaces/inkscape"
   xmlns:sodipodi="http://sodipodi.sourceforge.net/DTD/sodipodi-0.dtd"
   xmlns="http://www.w3.org/2000/svg"
   xmlns:svg="http://www.w3.org/2000/svg">
  <defs
     id="defs1" />
  <sodipodi:namedview
     id="namedview1"
     pagecolor="#ffffff"
     bordercolor="#666666"
     borderopacity="1.0"
     inkscape:showpageshadow="2"
     inkscape:pageopacity="0.0"
     inkscape:pagecheckerboard="0"
     inkscape:deskcolor="#d1d1d1"
     showgrid="true"
     inkscape:zoom="45.254834"
     inkscape:cx="5.0270873"
     inkscape:cy="12.020815"
     inkscape:window-width="2560"
     inkscape:window-height="1412"
     inkscape:window-x="0"
     inkscape:window-y="0"
     inkscape:window-maximized="1"
     inkscape:current-layer="svg1">
    <inkscape:grid
       id="grid2"
       units="px"
       originx="0"
       originy="0"
       spacingx="1"
       spacingy="1"
       empcolor="#3f3fff"
       empopacity="0.25098039"
       color="#3f3fff"
       opacity="0.1254902"
       empspacing="5"
       dotted="false"
       gridanglex="30"
       gridanglez="30"
       visible="true" />
  </sodipodi:namedview>
  <path
     style="fill:#0f93ee;stroke:#0f93ee;stroke-width:2;stroke-linecap:round;stroke-opacity:1"
     d="m 11.709407,21.984521 c -0.65935,-0.07713 -1.14972,-0.249192 -1.636322,-0.574149 C 9.851211,21.262203 9.7144039,21.150386 9.5314051,20.967639 8.9929663,20.429942 8.6514277,19.206222 8.5407456,18.442306 8.5158138,18.270229 8.4984023,17.861253 8.5121185,17.769802 l 0.00992,-0.06614 0.2415189,-0.160349 c 0.5408012,-0.359048 0.9498595,-0.551752 1.2046203,-0.567488 0.3242893,-0.02003 0.9084813,0.273705 1.6990853,0.854309 0.684661,0.502802 1.336027,0.872581 1.818847,1.032557 0.423761,0.140407 0.695837,0.136872 1.129918,-0.01468 0.163971,-0.05725 0.50228,-0.217764 0.703839,-0.333947 0.0734,-0.04231 0.135772,-0.07489 0.138596,-0.07239 0.01314,0.01162 -0.07831,0.412417 -0.132907,0.582498 -0.169468,0.527906 -0.434153,1.507981 -0.82033,1.906291 -0.536377,0.553228 -1.226717,0.908793 -1.995054,1.027571 -0.140488,0.02172 -0.687008,0.0398 -0.800764,0.02649 z"
     id="path3"
     sodipodi:nodetypes="ssssscssssssccssss" />
  <path
     d="M 14.500807,14.76 V 3.5 a 2.5,2.5 0 0 0 -5,0 v 11.26 a 4.5,4.5 0 1 0 5,0 z"
     id="path1" />
</svg>
