<?xml version="1.0" encoding="UTF-8" standalone="no"?>
<svg
   width="24"
   height="24"
   viewBox="0 0 24 24"
   fill="none"
   stroke="currentColor"
   stroke-width="2"
   stroke-linecap="round"
   stroke-linejoin="round"
   class="feather feather-thermometer"
   version="1.1"
   id="svg1"
   sodipodi:docname="19_thermometer_hot2.svg"
   inkscape:version="1.3.2 (091e20ef0f, 2023-11-25, custom)"
   xmlns:inkscape="http://www.inkscape.org/namespaces/inkscape"
   xmlns:sodipodi="http://sodipodi.sourceforge.net/DTD/sodipodi-0.dtd"
   xmlns="http://www.w3.org/2000/svg"
   xmlns:svg="http://www.w3.org/2000/svg">
  <defs
     id="defs1" />
  <sodipodi:namedview
     id="namedview1"
     pagecolor="#ffffff"
     bordercolor="#666666"
     borderopacity="1.0"
     inkscape:showpageshadow="2"
     inkscape:pageopacity="0.0"
     inkscape:pagecheckerboard="0"
     inkscape:deskcolor="#d1d1d1"
     showgrid="true"
     inkscape:zoom="32"
     inkscape:cx="1.296875"
     inkscape:cy="8.96875"
     inkscape:window-width="2560"
     inkscape:window-height="1412"
     inkscape:window-x="0"
     inkscape:window-y="0"
     inkscape:window-maximized="1"
     inkscape:current-layer="svg1">
    <inkscape:grid
       id="grid2"
       units="px"
       originx="0"
       originy="0"
       spacingx="1"
       spacingy="1"
       empcolor="#3f3fff"
       empopacity="0.25098039"
       color="#3f3fff"
       opacity="0.1254902"
       empspacing="5"
       dotted="false"
       gridanglex="30"
       gridanglez="30"
       visible="true" />
  </sodipodi:namedview>
  <path
     style="fill:#af2016;fill-opacity:1;stroke:#af2016;stroke-width:2;stroke-linecap:round;stroke-opacity:1"
     d="m 11.709407,21.984521 c -0.65935,-0.07713 -1.14972,-0.249192 -1.636322,-0.574149 C 9.851211,21.262203 9.7144039,21.150386 9.5314051,20.967639 8.9929663,20.429942 9.9112796,11.206224 9.8005975,10.442307 9.7756657,10.270231 9.7582541,9.8612545 9.7719704,9.7698035 l 0.00992,-0.06614 0.2415186,-0.160349 c 0.540801,-0.3590482 0.425572,0.5579365 0.680333,0.5422005 0.324289,-0.02003 -0.799959,-0.9712419 -0.0094,-0.3906379 0.684661,0.5028019 0.888321,0.7374089 1.371141,0.8973849 0.423761,0.140407 0.919656,0.112617 1.353737,-0.03894 0.163971,-0.05725 0.226757,0.07692 0.428316,-0.03926 0.0734,-0.04231 0.135772,-0.07489 0.138596,-0.07239 0.01314,0.01162 -0.07831,0.412417 -0.132907,0.582498 -0.169468,0.527906 1.164242,9.32611 0.778065,9.72442 -0.536377,0.553228 -1.352826,1.090662 -2.121163,1.20944 -0.140488,0.02172 -0.687008,0.0398 -0.800764,0.02649 z"
     id="path3"
     sodipodi:nodetypes="ssssscssssssccssss" />
  <path
     d="M 14.500807,14.76 V 3.5 a 2.5,2.5 0 0 0 -5,0 v 11.26 a 4.5,4.5 0 1 0 5,0 z"
     id="path1" />
</svg>
