<?xml version="1.0" encoding="UTF-8"?>
<svg id="svg4" class="bi bi-wallet2" width="24" height="24" fill="currentColor" version="1.1" viewBox="0 0 24 24" xmlns="http://www.w3.org/2000/svg">
 <path id="path2" d="m18.204 0.34842a2.25 2.25 0 0 1 2.796 2.181v1.83h0.75a2.25 2.25 0 0 1 2.25 2.25v13.5a2.25 2.25 0 0 1-2.25 2.25h-19.5a2.25 2.25 0 0 1-2.25-2.25v-13.5a2.25 2.25 0 0 1 2.148-2.2485zm-9.861 4.011h11.157v-1.83a0.75 0.75 0 0 0-0.9315-0.726zm-6.093 1.5a0.75 0.75 0 0 0-0.75 0.75v13.5a0.75 0.75 0 0 0 0.75 0.75h19.5a0.75 0.75 0 0 0 0.75-0.75v-13.5a0.75 0.75 0 0 0-0.75-0.75z" stroke-width="1.5"/>
</svg>
